<svg xmlns="http://www.w3.org/2000/svg" width="251.499" height="254.959">
  <path d="M123.69 250.337c-3.058-3.118-6.485-8.296-7.615-11.505-3.652-10.367-1.974-24.165 2.94-24.165 1.545 0 4.974 6.697 6.44 12.577.537 2.152 1.773 5.448 2.748 7.326.974 1.877 2.483 6.595 3.353 10.482 1.325 5.922 1.266 7.384-.363 9.012-1.703 1.703-2.632 1.241-7.503-3.727zm-34.242-.432c-2.172-2.173-2.764-12.406-.978-16.92 1.669-4.22 14.163-18.167 16.343-18.243 1.17-.042 3.12 1.022 4.334 2.364 2.067 2.284 1.938 3.112-2.034 13C102.283 242.133 96.095 252 93.384 252c-1.012 0-2.784-.943-3.936-2.095zm49.715-15.449c-6.72-3.897-14.126-20.169-10.286-22.602 3.077-1.95 4.56-1.37 11 4.299 9.312 8.197 13.314 18.345 8.033 20.371-2.992 1.148-3.343 1.065-8.747-2.068zm-75.443-6.622c-1.11-1.111.809-3.844 7.4-10.538 7.825-7.946 9.677-9.153 15.336-10 6.989-1.046 12.897.713 12.897 3.839 0 2.563-10.577 12.085-17.148 15.437-5.865 2.992-16.059 3.688-18.485 1.262zm112.291-5.15c-6.604-.573-14.404-2.129-17.333-3.455-2.929-1.327-8.02-3.346-11.313-4.487-3.635-1.26-6.166-3.013-6.441-4.461-.383-2.014.135-2.23 3.321-1.387 2.076.55 10.375.939 18.441.865 11.85-.109 16.715-.794 25.334-3.566 13.172-4.238 24.91-11.137 32.246-18.953 7.232-7.705 10.567-20.844 9.245-36.43-2.161-25.486-9.638-39.392-31.491-58.57-35.868-31.476-43.058-42.348-38.025-57.5 3.81-11.468 10.691-17.311 22.754-19.318 4.386-.73 6.083-.357 9.069 1.99 5.414 4.26 4.209 7.3-2.697 6.8-5.855-.422-10.373 1.384-20.101 8.04-6.65 4.549-7.31 8.663-2.937 18.303 3.257 7.179 21.745 24.977 35.937 34.597 22.348 15.148 35.23 28.33 43.46 44.47 3.104 6.09 5.328 15.7 5.954 30.54.586 13.908-2.748 35.614-10.866 42.96-8.579 7.764-16.748 12.319-29.882 16.662-10.306 3.408-19.751 4.198-34.675 2.9zM73.353 197.973c-18.652-2.182-36.668-7.874-47.673-15.064-7.46-4.874-22.01-22.113-23.572-27.927-.735-2.74-1.622-10.535-1.971-17.324-.929-18.078 2.647-27.452 17.496-45.87 7.08-8.783 17.11-17.335 25.29-21.565 7.64-3.951 15.508-6.052 35.602-9.508 37.889-6.516 49.547-10.743 59.546-21.59 7.332-7.955 7.018-10.896-2.141-20.054-7.845-7.845-8.112-10.725-.847-9.13 4.398.967 8.06 4.41 10.478 9.847 1.315 2.962 1.592 3.107 1.676.88.23-6.066-2.781-12.923-6.637-15.117-5.035-2.864-5.036-5.55 0-5.55 7.166 0 10.747 2.314 13.615 8.798 3.01 6.806 2.647 12.256-1.201 18.023a2844.27 2844.27 0 0 1-5.819 8.666c-10.179 15.102-18.941 20.07-48.894 27.728-22.381 5.721-34.279 10.404-44.948 17.69-9.125 6.233-11.847 9.069-17.7 18.445-6.996 11.207-8.574 16.445-9.314 30.919-.65 12.718-.469 14.066 2.804 20.754 1.924 3.934 8.086 12.09 13.692 18.124 8.836 9.511 11.81 11.74 22.355 16.75 6.69 3.18 14.417 6.501 17.173 7.382 2.756.88 5.627 2.753 6.38 4.161.754 1.408.9 2.49.323 2.404-.575-.087-7.646-.929-15.713-1.872zm61.79-28.605c-6.494-1.962-11.725-5.87-13.85-10.348-2.572-5.42-2.076-12.247 1.03-14.192 1.9-1.19 3.22-.457 7.551 4.188 2.887 3.096 5.45 6.205 5.697 6.91.247.704 2.577 2.167 5.18 3.25 4.382 1.824 5.048 1.768 9.05-.765 2.375-1.504 5.211-4.462 6.303-6.572 1.981-3.833 1.978-3.838-2.178-3.838-5.576 0-11.236-3.534-14.061-8.781-2.085-3.87-2.144-5.285-.593-14.094 2.003-11.373 3.082-13.125 8.08-13.125 6.035 0 7.292 2.773 5.369 11.837-1.86 8.76-.493 13.496 3.894 13.496 3.343 0 9.405-7.388 9.405-11.464 0-2.22 1.11-3.765 3.479-4.845 3.002-1.367 3.742-1.226 5.393 1.029 1.849 2.526 1.816 4.175-.34 17.28-.57 3.467-.424 3.712 1.093 1.838 3.618-4.466 12.14-9.171 16.614-9.171 6.146 0 14.914 4.685 16.48 8.808 3.088 8.118-.431 19.932-7.111 23.878-10.58 6.25-28.942-2.734-28.942-14.16 0-1.882-1.559.133-4.333 5.6-5.438 10.718-11.368 14.543-22.333 14.404-4.034-.05-8.928-.574-10.877-1.163zm61.277-12.3c2.935-2.936 1.535-13.628-1.962-14.97-2.894-1.11-6.795 1.436-9.137 5.964-1.98 3.828-1.92 4.11 1.514 7.294 3.907 3.62 7.105 4.191 9.585 1.712zM97.766 139c-2.004-4.834-1.534-18.254.798-22.764 3.55-6.865 7.094-8.903 15.488-8.903 9.077 0 13.709 3.27 16.142 11.392 1.572 5.246-.206 17.433-3.042 20.85-3.146 3.79-12.232.362-9.738-3.674 1.986-3.213 3.026-11.04 1.871-14.078-2.716-7.144-8.324-1.766-9.92 9.51-1.244 8.803-2.753 11.334-6.759 11.334-2.363 0-3.757-1.056-4.84-3.667zm-39.328-.267c-2.337-1.425-4.887-3.783-5.667-5.24-3.727-6.966.218-17.657 8.377-22.7 5.209-3.219 14.863-4.985 17.198-3.146.92.725 3.18 1.677 5.02 2.114 4.867 1.157 8.467 7.929 7.358 13.84-1.337 7.124-6.572 14.526-11.486 16.24-6.649 2.317-16 1.82-20.8-1.108zm16.915-8.066c1.467-1.467 2.712-3.117 2.769-3.667.056-.55.319-2.159.584-3.575.798-4.263-1.754-7.425-5.991-7.425-4.37 0-8.029 4.085-8.029 8.963 0 3.075 4.218 8.37 6.667 8.37.733 0 2.533-1.2 4-2.666z"/>
</svg>
